<mxfile host="app.diagrams.net" modified="2022-01-23T05:14:32.582Z" agent="5.0 (Windows NT 10.0; WOW64) AppleWebKit/537.36 (KHTML, like Gecko) Chrome/95.0.4636.4 Safari/537.36" etag="mIqHbOz1qPAoa3jRXvIG" version="16.4.5" type="github">
  <diagram id="tylmd6H703V4njI5NdVM" name="流程图">
    <mxGraphModel dx="2692" dy="547" grid="1" gridSize="10" guides="1" tooltips="1" connect="1" arrows="1" fold="1" page="1" pageScale="1" pageWidth="827" pageHeight="1169" math="0" shadow="0">
      <root>
        <mxCell id="0" />
        <mxCell id="1" parent="0" />
        <mxCell id="W9F6NNUQzTTmFKawhoOd-1" value="" style="edgeStyle=orthogonalEdgeStyle;rounded=0;orthogonalLoop=1;jettySize=auto;html=1;" parent="1" source="W9F6NNUQzTTmFKawhoOd-2" target="W9F6NNUQzTTmFKawhoOd-36" edge="1">
          <mxGeometry relative="1" as="geometry" />
        </mxCell>
        <mxCell id="W9F6NNUQzTTmFKawhoOd-2" value="开始" style="strokeWidth=2;html=1;shape=mxgraph.flowchart.start_1;whiteSpace=wrap;" parent="1" vertex="1">
          <mxGeometry x="-1072.5" y="270" width="100" height="60" as="geometry" />
        </mxCell>
        <mxCell id="W9F6NNUQzTTmFKawhoOd-3" value="" style="edgeStyle=orthogonalEdgeStyle;rounded=0;orthogonalLoop=1;jettySize=auto;html=1;" parent="1" source="W9F6NNUQzTTmFKawhoOd-4" target="W9F6NNUQzTTmFKawhoOd-6" edge="1">
          <mxGeometry relative="1" as="geometry" />
        </mxCell>
        <mxCell id="W9F6NNUQzTTmFKawhoOd-4" value="点击高级搜索" style="rounded=0;whiteSpace=wrap;html=1;" parent="1" vertex="1">
          <mxGeometry x="-680" y="769" width="120" height="60" as="geometry" />
        </mxCell>
        <mxCell id="W9F6NNUQzTTmFKawhoOd-5" style="edgeStyle=orthogonalEdgeStyle;rounded=0;orthogonalLoop=1;jettySize=auto;html=1;" parent="1" source="W9F6NNUQzTTmFKawhoOd-6" target="W9F6NNUQzTTmFKawhoOd-35" edge="1">
          <mxGeometry relative="1" as="geometry">
            <mxPoint x="-940" y="943" as="targetPoint" />
          </mxGeometry>
        </mxCell>
        <mxCell id="W9F6NNUQzTTmFKawhoOd-6" value="出现弹窗，输入内容" style="rounded=0;whiteSpace=wrap;html=1;" parent="1" vertex="1">
          <mxGeometry x="-680" y="640" width="120" height="60" as="geometry" />
        </mxCell>
        <mxCell id="W9F6NNUQzTTmFKawhoOd-7" value="结束" style="strokeWidth=2;html=1;shape=mxgraph.flowchart.start_1;whiteSpace=wrap;" parent="1" vertex="1">
          <mxGeometry x="-1410" y="385" width="100" height="60" as="geometry" />
        </mxCell>
        <mxCell id="W9F6NNUQzTTmFKawhoOd-8" value="子流程-方案一" style="swimlane;" parent="1" vertex="1">
          <mxGeometry x="-920" y="910" width="640" height="650" as="geometry">
            <mxRectangle x="-920" y="910" width="270" height="23" as="alternateBounds" />
          </mxGeometry>
        </mxCell>
        <mxCell id="W9F6NNUQzTTmFKawhoOd-9" value="获取表格参数，&lt;br&gt;请求数据" style="rounded=0;whiteSpace=wrap;html=1;" parent="W9F6NNUQzTTmFKawhoOd-8" vertex="1">
          <mxGeometry x="290" y="180" width="120" height="60" as="geometry" />
        </mxCell>
        <mxCell id="W9F6NNUQzTTmFKawhoOd-10" style="edgeStyle=orthogonalEdgeStyle;rounded=0;orthogonalLoop=1;jettySize=auto;html=1;" parent="W9F6NNUQzTTmFKawhoOd-8" source="W9F6NNUQzTTmFKawhoOd-13" target="W9F6NNUQzTTmFKawhoOd-24" edge="1">
          <mxGeometry relative="1" as="geometry">
            <mxPoint x="320" y="555" as="sourcePoint" />
          </mxGeometry>
        </mxCell>
        <mxCell id="W9F6NNUQzTTmFKawhoOd-11" style="edgeStyle=orthogonalEdgeStyle;rounded=0;orthogonalLoop=1;jettySize=auto;html=1;entryX=0.5;entryY=0;entryDx=0;entryDy=0;" parent="W9F6NNUQzTTmFKawhoOd-8" source="W9F6NNUQzTTmFKawhoOd-12" target="W9F6NNUQzTTmFKawhoOd-13" edge="1">
          <mxGeometry relative="1" as="geometry" />
        </mxCell>
        <mxCell id="W9F6NNUQzTTmFKawhoOd-12" value="获取列表数据" style="rounded=0;whiteSpace=wrap;html=1;" parent="W9F6NNUQzTTmFKawhoOd-8" vertex="1">
          <mxGeometry x="110" y="310" width="120" height="60" as="geometry" />
        </mxCell>
        <mxCell id="W9F6NNUQzTTmFKawhoOd-13" value="根据ID，勾选列表" style="rounded=0;whiteSpace=wrap;html=1;" parent="W9F6NNUQzTTmFKawhoOd-8" vertex="1">
          <mxGeometry x="110" y="440" width="120" height="60" as="geometry" />
        </mxCell>
        <mxCell id="W9F6NNUQzTTmFKawhoOd-14" value="取消/选上 n 行" style="strokeWidth=2;html=1;shape=mxgraph.flowchart.loop_limit;whiteSpace=wrap;" parent="W9F6NNUQzTTmFKawhoOd-8" vertex="1">
          <mxGeometry x="370" y="440" width="100" height="60" as="geometry" />
        </mxCell>
        <mxCell id="W9F6NNUQzTTmFKawhoOd-15" value="" style="edgeStyle=orthogonalEdgeStyle;rounded=0;orthogonalLoop=1;jettySize=auto;html=1;" parent="W9F6NNUQzTTmFKawhoOd-8" source="W9F6NNUQzTTmFKawhoOd-13" target="W9F6NNUQzTTmFKawhoOd-14" edge="1">
          <mxGeometry relative="1" as="geometry">
            <mxPoint x="450" y="514" as="targetPoint" />
          </mxGeometry>
        </mxCell>
        <mxCell id="W9F6NNUQzTTmFKawhoOd-16" value="" style="endArrow=classic;html=1;" parent="W9F6NNUQzTTmFKawhoOd-8" source="W9F6NNUQzTTmFKawhoOd-9" target="W9F6NNUQzTTmFKawhoOd-25" edge="1">
          <mxGeometry width="50" height="50" relative="1" as="geometry">
            <mxPoint x="200" y="296" as="sourcePoint" />
            <mxPoint x="320" y="285.69811320754707" as="targetPoint" />
          </mxGeometry>
        </mxCell>
        <mxCell id="W9F6NNUQzTTmFKawhoOd-17" value="存储" style="text;html=1;align=center;verticalAlign=middle;resizable=0;points=[];labelBackgroundColor=#ffffff;" parent="W9F6NNUQzTTmFKawhoOd-16" vertex="1" connectable="0">
          <mxGeometry x="-0.3034" y="-2" relative="1" as="geometry">
            <mxPoint as="offset" />
          </mxGeometry>
        </mxCell>
        <mxCell id="W9F6NNUQzTTmFKawhoOd-18" value="" style="endArrow=none;dashed=1;html=1;entryX=0.5;entryY=0;entryDx=0;entryDy=0;" parent="W9F6NNUQzTTmFKawhoOd-8" source="W9F6NNUQzTTmFKawhoOd-25" target="W9F6NNUQzTTmFKawhoOd-13" edge="1">
          <mxGeometry width="50" height="50" relative="1" as="geometry">
            <mxPoint x="397.89473684210543" y="357" as="sourcePoint" />
            <mxPoint x="410" y="421.71067811865487" as="targetPoint" />
          </mxGeometry>
        </mxCell>
        <mxCell id="W9F6NNUQzTTmFKawhoOd-19" style="edgeStyle=orthogonalEdgeStyle;rounded=0;orthogonalLoop=1;jettySize=auto;html=1;" parent="W9F6NNUQzTTmFKawhoOd-8" source="W9F6NNUQzTTmFKawhoOd-14" target="W9F6NNUQzTTmFKawhoOd-25" edge="1">
          <mxGeometry relative="1" as="geometry">
            <mxPoint x="320" y="588" as="sourcePoint" />
            <mxPoint x="435" y="357" as="targetPoint" />
          </mxGeometry>
        </mxCell>
        <mxCell id="W9F6NNUQzTTmFKawhoOd-20" value="修改" style="text;html=1;align=center;verticalAlign=middle;resizable=0;points=[];labelBackgroundColor=#ffffff;" parent="W9F6NNUQzTTmFKawhoOd-19" vertex="1" connectable="0">
          <mxGeometry x="0.163" y="-1" relative="1" as="geometry">
            <mxPoint as="offset" />
          </mxGeometry>
        </mxCell>
        <mxCell id="W9F6NNUQzTTmFKawhoOd-21" value="" style="edgeStyle=orthogonalEdgeStyle;rounded=0;orthogonalLoop=1;jettySize=auto;html=1;" parent="W9F6NNUQzTTmFKawhoOd-8" source="W9F6NNUQzTTmFKawhoOd-30" target="W9F6NNUQzTTmFKawhoOd-9" edge="1">
          <mxGeometry relative="1" as="geometry">
            <mxPoint x="140" y="200" as="targetPoint" />
          </mxGeometry>
        </mxCell>
        <mxCell id="W9F6NNUQzTTmFKawhoOd-22" value="Y" style="text;html=1;align=center;verticalAlign=middle;resizable=0;points=[];labelBackgroundColor=#ffffff;" parent="W9F6NNUQzTTmFKawhoOd-21" vertex="1" connectable="0">
          <mxGeometry x="-0.0933" y="-1" relative="1" as="geometry">
            <mxPoint as="offset" />
          </mxGeometry>
        </mxCell>
        <mxCell id="W9F6NNUQzTTmFKawhoOd-23" value="开始" style="strokeWidth=2;html=1;shape=mxgraph.flowchart.start_1;whiteSpace=wrap;" parent="W9F6NNUQzTTmFKawhoOd-8" vertex="1">
          <mxGeometry x="120" y="60" width="100" height="60" as="geometry" />
        </mxCell>
        <mxCell id="W9F6NNUQzTTmFKawhoOd-24" value="结束" style="strokeWidth=2;html=1;shape=mxgraph.flowchart.start_1;whiteSpace=wrap;" parent="W9F6NNUQzTTmFKawhoOd-8" vertex="1">
          <mxGeometry x="120" y="560" width="100" height="60" as="geometry" />
        </mxCell>
        <mxCell id="W9F6NNUQzTTmFKawhoOd-25" value="勾选ID数组" style="strokeWidth=2;html=1;shape=mxgraph.flowchart.direct_data;whiteSpace=wrap;" parent="W9F6NNUQzTTmFKawhoOd-8" vertex="1">
          <mxGeometry x="370" y="300" width="100" height="60" as="geometry" />
        </mxCell>
        <mxCell id="W9F6NNUQzTTmFKawhoOd-26" value="&lt;span style=&quot;white-space: normal ; text-align: left&quot;&gt;注：分页列表无法知道全部的列表数据，只能维护一个公共的数组&lt;/span&gt;" style="shape=note;whiteSpace=wrap;html=1;backgroundOutline=1;darkOpacity=0.05;" parent="W9F6NNUQzTTmFKawhoOd-8" vertex="1">
          <mxGeometry x="480" y="90" width="110" height="127" as="geometry" />
        </mxCell>
        <mxCell id="W9F6NNUQzTTmFKawhoOd-27" value="" style="endArrow=none;dashed=1;html=1;" parent="W9F6NNUQzTTmFKawhoOd-8" source="W9F6NNUQzTTmFKawhoOd-26" target="W9F6NNUQzTTmFKawhoOd-25" edge="1">
          <mxGeometry width="50" height="50" relative="1" as="geometry">
            <mxPoint x="461.85022026431716" y="277" as="sourcePoint" />
            <mxPoint x="389.28932188134524" y="213.5" as="targetPoint" />
          </mxGeometry>
        </mxCell>
        <mxCell id="W9F6NNUQzTTmFKawhoOd-28" style="edgeStyle=orthogonalEdgeStyle;rounded=0;orthogonalLoop=1;jettySize=auto;html=1;exitX=0.5;exitY=1;exitDx=0;exitDy=0;exitPerimeter=0;" parent="W9F6NNUQzTTmFKawhoOd-8" source="W9F6NNUQzTTmFKawhoOd-30" target="W9F6NNUQzTTmFKawhoOd-12" edge="1">
          <mxGeometry relative="1" as="geometry" />
        </mxCell>
        <mxCell id="W9F6NNUQzTTmFKawhoOd-29" value="N" style="text;html=1;align=center;verticalAlign=middle;resizable=0;points=[];labelBackgroundColor=#ffffff;" parent="W9F6NNUQzTTmFKawhoOd-28" vertex="1" connectable="0">
          <mxGeometry x="-0.6463" y="-2" relative="1" as="geometry">
            <mxPoint as="offset" />
          </mxGeometry>
        </mxCell>
        <mxCell id="W9F6NNUQzTTmFKawhoOd-30" value="是否开启&lt;br&gt;远程分页" style="strokeWidth=2;html=1;shape=mxgraph.flowchart.decision;whiteSpace=wrap;" parent="W9F6NNUQzTTmFKawhoOd-8" vertex="1">
          <mxGeometry x="110" y="170" width="120" height="80" as="geometry" />
        </mxCell>
        <mxCell id="W9F6NNUQzTTmFKawhoOd-31" value="" style="edgeStyle=orthogonalEdgeStyle;rounded=0;orthogonalLoop=1;jettySize=auto;html=1;" parent="W9F6NNUQzTTmFKawhoOd-8" source="W9F6NNUQzTTmFKawhoOd-23" target="W9F6NNUQzTTmFKawhoOd-30" edge="1">
          <mxGeometry relative="1" as="geometry">
            <mxPoint x="-720" y="1077" as="sourcePoint" />
            <mxPoint x="-720" y="1170" as="targetPoint" />
          </mxGeometry>
        </mxCell>
        <mxCell id="W9F6NNUQzTTmFKawhoOd-32" value="" style="endArrow=none;dashed=1;html=1;" parent="1" source="W9F6NNUQzTTmFKawhoOd-37" target="W9F6NNUQzTTmFKawhoOd-8" edge="1">
          <mxGeometry width="50" height="50" relative="1" as="geometry">
            <mxPoint x="-870" y="1031" as="sourcePoint" />
            <mxPoint x="-799.2893218813452" y="981" as="targetPoint" />
          </mxGeometry>
        </mxCell>
        <mxCell id="W9F6NNUQzTTmFKawhoOd-33" value="采用" style="text;html=1;align=center;verticalAlign=middle;resizable=0;points=[];labelBackgroundColor=#ffffff;" parent="W9F6NNUQzTTmFKawhoOd-32" vertex="1" connectable="0">
          <mxGeometry x="0.3488" y="-4" relative="1" as="geometry">
            <mxPoint x="-1" as="offset" />
          </mxGeometry>
        </mxCell>
        <mxCell id="W9F6NNUQzTTmFKawhoOd-34" style="edgeStyle=orthogonalEdgeStyle;rounded=0;orthogonalLoop=1;jettySize=auto;html=1;exitX=0.5;exitY=0;exitDx=0;exitDy=0;entryX=1;entryY=0.5;entryDx=0;entryDy=0;" parent="1" source="W9F6NNUQzTTmFKawhoOd-35" target="W9F6NNUQzTTmFKawhoOd-36" edge="1">
          <mxGeometry relative="1" as="geometry" />
        </mxCell>
        <mxCell id="W9F6NNUQzTTmFKawhoOd-35" value="清空搜索框内容，&lt;br&gt;且禁用" style="rounded=0;whiteSpace=wrap;html=1;" parent="1" vertex="1">
          <mxGeometry x="-680" y="510" width="120" height="60" as="geometry" />
        </mxCell>
        <mxCell id="W9F6NNUQzTTmFKawhoOd-36" value="表格加载/刷新" style="rounded=0;whiteSpace=wrap;html=1;" parent="1" vertex="1">
          <mxGeometry x="-1082.5" y="385" width="120" height="60" as="geometry" />
        </mxCell>
        <mxCell id="W9F6NNUQzTTmFKawhoOd-37" value="分页全选" style="shape=process;whiteSpace=wrap;html=1;backgroundOutline=1;" parent="1" vertex="1">
          <mxGeometry x="-1082.5" y="769" width="120" height="60" as="geometry" />
        </mxCell>
        <mxCell id="W9F6NNUQzTTmFKawhoOd-38" style="edgeStyle=orthogonalEdgeStyle;rounded=0;orthogonalLoop=1;jettySize=auto;html=1;" parent="1" source="W9F6NNUQzTTmFKawhoOd-80" target="W9F6NNUQzTTmFKawhoOd-4" edge="1">
          <mxGeometry relative="1" as="geometry">
            <mxPoint x="-1020" y="680" as="sourcePoint" />
          </mxGeometry>
        </mxCell>
        <mxCell id="W9F6NNUQzTTmFKawhoOd-39" value="Y" style="text;html=1;align=center;verticalAlign=middle;resizable=0;points=[];labelBackgroundColor=#ffffff;" parent="W9F6NNUQzTTmFKawhoOd-38" vertex="1" connectable="0">
          <mxGeometry x="-0.3333" relative="1" as="geometry">
            <mxPoint as="offset" />
          </mxGeometry>
        </mxCell>
        <mxCell id="W9F6NNUQzTTmFKawhoOd-40" style="edgeStyle=orthogonalEdgeStyle;rounded=0;orthogonalLoop=1;jettySize=auto;html=1;" parent="1" source="W9F6NNUQzTTmFKawhoOd-84" target="W9F6NNUQzTTmFKawhoOd-43" edge="1">
          <mxGeometry relative="1" as="geometry" />
        </mxCell>
        <mxCell id="W9F6NNUQzTTmFKawhoOd-41" style="edgeStyle=orthogonalEdgeStyle;rounded=0;orthogonalLoop=1;jettySize=auto;html=1;exitX=0.5;exitY=0;exitDx=0;exitDy=0;" parent="1" source="W9F6NNUQzTTmFKawhoOd-43" target="W9F6NNUQzTTmFKawhoOd-7" edge="1">
          <mxGeometry relative="1" as="geometry" />
        </mxCell>
        <mxCell id="W9F6NNUQzTTmFKawhoOd-42" style="edgeStyle=orthogonalEdgeStyle;rounded=0;orthogonalLoop=1;jettySize=auto;html=1;exitX=0.5;exitY=1;exitDx=0;exitDy=0;" parent="1" source="W9F6NNUQzTTmFKawhoOd-37" target="W9F6NNUQzTTmFKawhoOd-51" edge="1">
          <mxGeometry relative="1" as="geometry">
            <mxPoint x="-1110" y="922" as="sourcePoint" />
            <mxPoint x="-1010" y="1160" as="targetPoint" />
          </mxGeometry>
        </mxCell>
        <mxCell id="W9F6NNUQzTTmFKawhoOd-43" value="清空筛选条件，恢复条件初始化" style="rounded=0;whiteSpace=wrap;html=1;" parent="1" vertex="1">
          <mxGeometry x="-1420" y="495" width="120" height="60" as="geometry" />
        </mxCell>
        <mxCell id="W9F6NNUQzTTmFKawhoOd-44" style="edgeStyle=orthogonalEdgeStyle;rounded=0;orthogonalLoop=1;jettySize=auto;html=1;exitX=0.5;exitY=0;exitDx=0;exitDy=0;entryX=0;entryY=0.5;entryDx=0;entryDy=0;" parent="1" source="W9F6NNUQzTTmFKawhoOd-45" target="W9F6NNUQzTTmFKawhoOd-36" edge="1">
          <mxGeometry relative="1" as="geometry">
            <mxPoint x="-1235" y="1120" as="sourcePoint" />
            <mxPoint x="-1385" y="1096.5" as="targetPoint" />
            <Array as="points" />
          </mxGeometry>
        </mxCell>
        <mxCell id="W9F6NNUQzTTmFKawhoOd-45" value="校验数据，提示...." style="rounded=0;whiteSpace=wrap;html=1;" parent="1" vertex="1">
          <mxGeometry x="-1280" y="769" width="120" height="60" as="geometry" />
        </mxCell>
        <mxCell id="W9F6NNUQzTTmFKawhoOd-46" value="是否清空条件？" style="rhombus;whiteSpace=wrap;html=1;" parent="1" vertex="1">
          <mxGeometry x="-1080" y="613" width="115" height="77" as="geometry" />
        </mxCell>
        <mxCell id="W9F6NNUQzTTmFKawhoOd-47" value="" style="edgeStyle=orthogonalEdgeStyle;rounded=0;orthogonalLoop=1;jettySize=auto;html=1;" parent="1" source="W9F6NNUQzTTmFKawhoOd-52" target="W9F6NNUQzTTmFKawhoOd-46" edge="1">
          <mxGeometry relative="1" as="geometry">
            <mxPoint x="-1020" y="570" as="sourcePoint" />
            <mxPoint x="-1030" y="650" as="targetPoint" />
          </mxGeometry>
        </mxCell>
        <mxCell id="W9F6NNUQzTTmFKawhoOd-48" value="" style="edgeStyle=orthogonalEdgeStyle;rounded=0;orthogonalLoop=1;jettySize=auto;html=1;" parent="1" source="W9F6NNUQzTTmFKawhoOd-46" target="W9F6NNUQzTTmFKawhoOd-37" edge="1">
          <mxGeometry relative="1" as="geometry">
            <mxPoint x="-1027.5" y="680" as="sourcePoint" />
            <mxPoint x="-1027.4" y="740.0627450980392" as="targetPoint" />
          </mxGeometry>
        </mxCell>
        <mxCell id="W9F6NNUQzTTmFKawhoOd-49" value="N" style="text;html=1;align=center;verticalAlign=middle;resizable=0;points=[];labelBackgroundColor=#ffffff;" parent="W9F6NNUQzTTmFKawhoOd-48" vertex="1" connectable="0">
          <mxGeometry x="0.2014" y="3" relative="1" as="geometry">
            <mxPoint x="-2.999999999999999" y="-27" as="offset" />
          </mxGeometry>
        </mxCell>
        <mxCell id="W9F6NNUQzTTmFKawhoOd-50" value="" style="edgeStyle=orthogonalEdgeStyle;rounded=0;orthogonalLoop=1;jettySize=auto;html=1;" parent="1" source="W9F6NNUQzTTmFKawhoOd-51" target="W9F6NNUQzTTmFKawhoOd-55" edge="1">
          <mxGeometry relative="1" as="geometry">
            <mxPoint x="-1090" y="970" as="targetPoint" />
          </mxGeometry>
        </mxCell>
        <mxCell id="W9F6NNUQzTTmFKawhoOd-51" value="批量操作&lt;br&gt;请求参数" style="strokeWidth=2;html=1;shape=mxgraph.flowchart.direct_data;whiteSpace=wrap;" parent="1" vertex="1">
          <mxGeometry x="-1072.5" y="940" width="100" height="60" as="geometry" />
        </mxCell>
        <mxCell id="W9F6NNUQzTTmFKawhoOd-52" value="清空已选数据" style="rounded=0;whiteSpace=wrap;html=1;" parent="1" vertex="1">
          <mxGeometry x="-1082.5" y="500" width="120" height="60" as="geometry" />
        </mxCell>
        <mxCell id="W9F6NNUQzTTmFKawhoOd-53" value="" style="edgeStyle=orthogonalEdgeStyle;rounded=0;orthogonalLoop=1;jettySize=auto;html=1;" parent="1" source="W9F6NNUQzTTmFKawhoOd-36" target="W9F6NNUQzTTmFKawhoOd-52" edge="1">
          <mxGeometry relative="1" as="geometry">
            <mxPoint x="-1022.5" y="445" as="sourcePoint" />
            <mxPoint x="-1022.5" y="613" as="targetPoint" />
          </mxGeometry>
        </mxCell>
        <mxCell id="W9F6NNUQzTTmFKawhoOd-54" value="" style="edgeStyle=orthogonalEdgeStyle;rounded=0;orthogonalLoop=1;jettySize=auto;html=1;" parent="1" source="W9F6NNUQzTTmFKawhoOd-55" target="W9F6NNUQzTTmFKawhoOd-45" edge="1">
          <mxGeometry relative="1" as="geometry" />
        </mxCell>
        <mxCell id="W9F6NNUQzTTmFKawhoOd-55" value="&lt;span style=&quot;white-space: normal&quot;&gt;批量操作：删除..&lt;/span&gt;" style="rounded=0;whiteSpace=wrap;html=1;" parent="1" vertex="1">
          <mxGeometry x="-1280" y="940" width="120" height="60" as="geometry" />
        </mxCell>
        <mxCell id="W9F6NNUQzTTmFKawhoOd-56" value="子流程-方案二" style="swimlane;" parent="1" vertex="1" collapsed="1">
          <mxGeometry x="-920" y="860" width="260" height="23" as="geometry">
            <mxRectangle x="-920" y="860" width="640" height="650" as="alternateBounds" />
          </mxGeometry>
        </mxCell>
        <mxCell id="W9F6NNUQzTTmFKawhoOd-57" value="" style="edgeStyle=orthogonalEdgeStyle;rounded=0;orthogonalLoop=1;jettySize=auto;html=1;" parent="W9F6NNUQzTTmFKawhoOd-56" source="W9F6NNUQzTTmFKawhoOd-69" target="W9F6NNUQzTTmFKawhoOd-60" edge="1">
          <mxGeometry relative="1" as="geometry">
            <mxPoint x="290" y="227" as="sourcePoint" />
          </mxGeometry>
        </mxCell>
        <mxCell id="W9F6NNUQzTTmFKawhoOd-58" style="edgeStyle=orthogonalEdgeStyle;rounded=0;orthogonalLoop=1;jettySize=auto;html=1;exitX=0;exitY=0.5;exitDx=0;exitDy=0;" parent="W9F6NNUQzTTmFKawhoOd-56" source="W9F6NNUQzTTmFKawhoOd-75" target="W9F6NNUQzTTmFKawhoOd-63" edge="1">
          <mxGeometry relative="1" as="geometry">
            <mxPoint x="290" y="440" as="targetPoint" />
          </mxGeometry>
        </mxCell>
        <mxCell id="W9F6NNUQzTTmFKawhoOd-59" value="N" style="text;html=1;align=center;verticalAlign=middle;resizable=0;points=[];labelBackgroundColor=#ffffff;" parent="W9F6NNUQzTTmFKawhoOd-58" vertex="1" connectable="0">
          <mxGeometry x="-0.6105" y="25" relative="1" as="geometry">
            <mxPoint as="offset" />
          </mxGeometry>
        </mxCell>
        <mxCell id="W9F6NNUQzTTmFKawhoOd-60" value="获取列表数据" style="rounded=0;whiteSpace=wrap;html=1;" parent="W9F6NNUQzTTmFKawhoOd-56" vertex="1">
          <mxGeometry x="230" y="167" width="120" height="60" as="geometry" />
        </mxCell>
        <mxCell id="W9F6NNUQzTTmFKawhoOd-61" value="" style="edgeStyle=orthogonalEdgeStyle;rounded=0;orthogonalLoop=1;jettySize=auto;html=1;exitX=1;exitY=0.5;exitDx=0;exitDy=0;" parent="W9F6NNUQzTTmFKawhoOd-56" source="W9F6NNUQzTTmFKawhoOd-75" target="W9F6NNUQzTTmFKawhoOd-66" edge="1">
          <mxGeometry relative="1" as="geometry" />
        </mxCell>
        <mxCell id="W9F6NNUQzTTmFKawhoOd-62" value="Y" style="text;html=1;align=center;verticalAlign=middle;resizable=0;points=[];labelBackgroundColor=#ffffff;" parent="W9F6NNUQzTTmFKawhoOd-61" vertex="1" connectable="0">
          <mxGeometry x="-0.2167" y="-10" relative="1" as="geometry">
            <mxPoint as="offset" />
          </mxGeometry>
        </mxCell>
        <mxCell id="W9F6NNUQzTTmFKawhoOd-63" value="选上 n 行" style="strokeWidth=2;html=1;shape=mxgraph.flowchart.loop_limit;whiteSpace=wrap;" parent="W9F6NNUQzTTmFKawhoOd-56" vertex="1">
          <mxGeometry x="130" y="380" width="100" height="60" as="geometry" />
        </mxCell>
        <mxCell id="W9F6NNUQzTTmFKawhoOd-64" style="edgeStyle=orthogonalEdgeStyle;rounded=0;orthogonalLoop=1;jettySize=auto;html=1;" parent="W9F6NNUQzTTmFKawhoOd-56" source="W9F6NNUQzTTmFKawhoOd-66" target="W9F6NNUQzTTmFKawhoOd-72" edge="1">
          <mxGeometry relative="1" as="geometry" />
        </mxCell>
        <mxCell id="W9F6NNUQzTTmFKawhoOd-65" value="修改unselect_list" style="text;html=1;align=center;verticalAlign=middle;resizable=0;points=[];labelBackgroundColor=#ffffff;" parent="W9F6NNUQzTTmFKawhoOd-64" vertex="1" connectable="0">
          <mxGeometry x="-0.3385" y="-1" relative="1" as="geometry">
            <mxPoint as="offset" />
          </mxGeometry>
        </mxCell>
        <mxCell id="W9F6NNUQzTTmFKawhoOd-66" value="取消 n 行" style="strokeWidth=2;html=1;shape=mxgraph.flowchart.loop_limit;whiteSpace=wrap;" parent="W9F6NNUQzTTmFKawhoOd-56" vertex="1">
          <mxGeometry x="370" y="380" width="100" height="60" as="geometry" />
        </mxCell>
        <mxCell id="W9F6NNUQzTTmFKawhoOd-67" style="edgeStyle=orthogonalEdgeStyle;rounded=0;orthogonalLoop=1;jettySize=auto;html=1;" parent="W9F6NNUQzTTmFKawhoOd-56" source="W9F6NNUQzTTmFKawhoOd-63" target="W9F6NNUQzTTmFKawhoOd-72" edge="1">
          <mxGeometry relative="1" as="geometry">
            <mxPoint x="440" y="588" as="sourcePoint" />
            <mxPoint x="555" y="357" as="targetPoint" />
          </mxGeometry>
        </mxCell>
        <mxCell id="W9F6NNUQzTTmFKawhoOd-68" value="修改select_list" style="text;html=1;align=center;verticalAlign=middle;resizable=0;points=[];labelBackgroundColor=#ffffff;" parent="W9F6NNUQzTTmFKawhoOd-67" vertex="1" connectable="0">
          <mxGeometry x="0.163" y="-1" relative="1" as="geometry">
            <mxPoint as="offset" />
          </mxGeometry>
        </mxCell>
        <mxCell id="W9F6NNUQzTTmFKawhoOd-69" value="开始" style="strokeWidth=2;html=1;shape=mxgraph.flowchart.start_1;whiteSpace=wrap;" parent="W9F6NNUQzTTmFKawhoOd-56" vertex="1">
          <mxGeometry x="240" y="60" width="100" height="60" as="geometry" />
        </mxCell>
        <mxCell id="W9F6NNUQzTTmFKawhoOd-70" value="结束" style="strokeWidth=2;html=1;shape=mxgraph.flowchart.start_1;whiteSpace=wrap;" parent="W9F6NNUQzTTmFKawhoOd-56" vertex="1">
          <mxGeometry x="430" y="530" width="100" height="60" as="geometry" />
        </mxCell>
        <mxCell id="W9F6NNUQzTTmFKawhoOd-71" value="" style="edgeStyle=orthogonalEdgeStyle;rounded=0;orthogonalLoop=1;jettySize=auto;html=1;" parent="W9F6NNUQzTTmFKawhoOd-56" source="W9F6NNUQzTTmFKawhoOd-72" target="W9F6NNUQzTTmFKawhoOd-70" edge="1">
          <mxGeometry relative="1" as="geometry">
            <mxPoint x="450" y="560" as="targetPoint" />
          </mxGeometry>
        </mxCell>
        <mxCell id="W9F6NNUQzTTmFKawhoOd-72" value="请求对象" style="strokeWidth=2;html=1;shape=mxgraph.flowchart.direct_data;whiteSpace=wrap;" parent="W9F6NNUQzTTmFKawhoOd-56" vertex="1">
          <mxGeometry x="270" y="530" width="100" height="60" as="geometry" />
        </mxCell>
        <mxCell id="W9F6NNUQzTTmFKawhoOd-73" value="&lt;span style=&quot;white-space: normal ; text-align: left&quot;&gt;注：通过mode决定list是正选还是反选&lt;/span&gt;" style="shape=note;whiteSpace=wrap;html=1;backgroundOutline=1;darkOpacity=0.05;" parent="W9F6NNUQzTTmFKawhoOd-56" vertex="1">
          <mxGeometry x="30" y="470" width="110" height="127" as="geometry" />
        </mxCell>
        <mxCell id="W9F6NNUQzTTmFKawhoOd-74" value="" style="endArrow=none;dashed=1;html=1;" parent="W9F6NNUQzTTmFKawhoOd-56" source="W9F6NNUQzTTmFKawhoOd-73" target="W9F6NNUQzTTmFKawhoOd-72" edge="1">
          <mxGeometry width="50" height="50" relative="1" as="geometry">
            <mxPoint x="606.265750286369" y="187" as="sourcePoint" />
            <mxPoint x="509.28932188134524" y="213.5" as="targetPoint" />
          </mxGeometry>
        </mxCell>
        <mxCell id="W9F6NNUQzTTmFKawhoOd-75" value="是否为全选模式？" style="rhombus;whiteSpace=wrap;html=1;" parent="W9F6NNUQzTTmFKawhoOd-56" vertex="1">
          <mxGeometry x="230" y="270" width="120" height="80" as="geometry" />
        </mxCell>
        <mxCell id="W9F6NNUQzTTmFKawhoOd-76" style="edgeStyle=orthogonalEdgeStyle;rounded=0;orthogonalLoop=1;jettySize=auto;html=1;" parent="W9F6NNUQzTTmFKawhoOd-56" source="W9F6NNUQzTTmFKawhoOd-60" target="W9F6NNUQzTTmFKawhoOd-75" edge="1">
          <mxGeometry relative="1" as="geometry">
            <mxPoint x="30" y="1170" as="sourcePoint" />
            <mxPoint x="-70" y="1300" as="targetPoint" />
          </mxGeometry>
        </mxCell>
        <mxCell id="W9F6NNUQzTTmFKawhoOd-77" value="" style="endArrow=none;dashed=1;html=1;" parent="1" source="W9F6NNUQzTTmFKawhoOd-37" target="W9F6NNUQzTTmFKawhoOd-56" edge="1">
          <mxGeometry width="50" height="50" relative="1" as="geometry">
            <mxPoint x="-1022.5" y="879" as="sourcePoint" />
            <mxPoint x="-1022.5" y="899.7106781186548" as="targetPoint" />
          </mxGeometry>
        </mxCell>
        <mxCell id="W9F6NNUQzTTmFKawhoOd-78" value="" style="edgeStyle=orthogonalEdgeStyle;rounded=0;orthogonalLoop=1;jettySize=auto;html=1;" parent="1" source="W9F6NNUQzTTmFKawhoOd-80" target="W9F6NNUQzTTmFKawhoOd-83" edge="1">
          <mxGeometry relative="1" as="geometry" />
        </mxCell>
        <mxCell id="W9F6NNUQzTTmFKawhoOd-79" value="N" style="text;html=1;align=center;verticalAlign=middle;resizable=0;points=[];labelBackgroundColor=#ffffff;" parent="W9F6NNUQzTTmFKawhoOd-78" vertex="1" connectable="0">
          <mxGeometry x="-0.2868" y="-4" relative="1" as="geometry">
            <mxPoint as="offset" />
          </mxGeometry>
        </mxCell>
        <mxCell id="W9F6NNUQzTTmFKawhoOd-80" value="是否为高级搜索" style="rhombus;whiteSpace=wrap;html=1;" parent="1" vertex="1">
          <mxGeometry x="-880" y="759" width="110" height="80" as="geometry" />
        </mxCell>
        <mxCell id="W9F6NNUQzTTmFKawhoOd-81" style="edgeStyle=orthogonalEdgeStyle;rounded=0;orthogonalLoop=1;jettySize=auto;html=1;" parent="1" source="W9F6NNUQzTTmFKawhoOd-37" target="W9F6NNUQzTTmFKawhoOd-80" edge="1">
          <mxGeometry relative="1" as="geometry">
            <mxPoint x="-962.5" y="799" as="sourcePoint" />
            <mxPoint x="-730" y="799" as="targetPoint" />
          </mxGeometry>
        </mxCell>
        <mxCell id="W9F6NNUQzTTmFKawhoOd-82" style="edgeStyle=orthogonalEdgeStyle;rounded=0;orthogonalLoop=1;jettySize=auto;html=1;exitX=0.5;exitY=0;exitDx=0;exitDy=0;entryX=1;entryY=0.5;entryDx=0;entryDy=0;" parent="1" source="W9F6NNUQzTTmFKawhoOd-83" target="W9F6NNUQzTTmFKawhoOd-36" edge="1">
          <mxGeometry relative="1" as="geometry" />
        </mxCell>
        <mxCell id="W9F6NNUQzTTmFKawhoOd-83" value="在搜索框输入字符" style="rounded=0;whiteSpace=wrap;html=1;" parent="1" vertex="1">
          <mxGeometry x="-885" y="570" width="120" height="60" as="geometry" />
        </mxCell>
        <mxCell id="W9F6NNUQzTTmFKawhoOd-84" value="点击清空按钮" style="rounded=0;whiteSpace=wrap;html=1;" parent="1" vertex="1">
          <mxGeometry x="-1405" y="621.5" width="90" height="60" as="geometry" />
        </mxCell>
        <mxCell id="W9F6NNUQzTTmFKawhoOd-85" style="edgeStyle=orthogonalEdgeStyle;rounded=0;orthogonalLoop=1;jettySize=auto;html=1;exitX=0;exitY=0.5;exitDx=0;exitDy=0;" parent="1" source="W9F6NNUQzTTmFKawhoOd-46" target="W9F6NNUQzTTmFKawhoOd-84" edge="1">
          <mxGeometry relative="1" as="geometry">
            <mxPoint x="-1075" y="651.5" as="sourcePoint" />
            <mxPoint x="-1290" y="651.5" as="targetPoint" />
          </mxGeometry>
        </mxCell>
        <mxCell id="W9F6NNUQzTTmFKawhoOd-86" value="Y" style="text;html=1;align=center;verticalAlign=middle;resizable=0;points=[];labelBackgroundColor=#ffffff;" parent="W9F6NNUQzTTmFKawhoOd-85" vertex="1" connectable="0">
          <mxGeometry x="-0.771" y="3" relative="1" as="geometry">
            <mxPoint x="-14" y="-3" as="offset" />
          </mxGeometry>
        </mxCell>
      </root>
    </mxGraphModel>
  </diagram>
</mxfile>
